<?xml version="1.0" encoding="utf-8"?>
<!-- Generator: Adobe Illustrator 23.1.0, SVG Export Plug-In . SVG Version: 6.00 Build 0)  -->
<svg version="1.1" id="Capa_1" xmlns="http://www.w3.org/2000/svg" xmlns:xlink="http://www.w3.org/1999/xlink" x="0px" y="0px"
	 viewBox="0 0 55 55" style="enable-background:new 0 0 55 55;" xml:space="preserve">
<style type="text/css">
	.st0{fill:#CFCDD8;}
	.st1{fill:#494A4A;}
	.st2{fill:#FFFFFF;fill-opacity:0;}
	.st3{fill:#A81B1E;}
	.st4{fill:#010202;}
</style>
<g>
	<circle class="st0" cx="27.5" cy="27.5" r="27.5"/>
	<path class="st1" d="M17.1,9c-0.2-0.1-0.5-0.2-0.6-0.2c-0.4,0-1,0.6-1,0.9c0,0.2,0.6,1.1,1.1,2.1c1.3,2,1.3,2.1,1.6,2.2l0,0
		c0.1,0.1,0.4,0.1,0.5,0.1c0.4,0,0.9-0.6,0.9-0.9C19.7,12.8,17.6,9.3,17.1,9z"/>
	<path class="st1" d="M26.6,11.7L26.6,11.7c0.5,0.4,1,0.4,1.5,0c0.3-0.3,0.3-0.4,0.4-2.6c0-1.4,0-2.4-0.1-2.6
		c-0.2-0.4-0.8-0.6-1.3-0.5c-0.6,0.3-0.7,0.5-0.7,3C26.2,11.4,26.2,11.5,26.6,11.7z"/>
	<path class="st1" d="M9.1,16.1c-0.6-0.2-1.3,0.4-1.3,1c0,0.1,0.1,0.4,0.3,0.6c0.2,0.3,2.3,1.4,3.9,2.2c0.9,0.5,1.9-0.7,1.3-1.4
		C13,18.1,9.5,16.2,9.1,16.1z"/>
	<path class="st1" d="M8.1,25.8c-2.3,0-2.8,0.1-3.1,0.5c-0.3,0.3-0.2,0.9,0.1,1.2l0,0c0.3,0.3,0.3,0.3,2.8,0.3c2.4,0,2.6,0,2.9-0.3
		c0.3-0.2,0.3-0.4,0.3-0.6C11.2,25.9,10.9,25.8,8.1,25.8z"/>
	<path class="st1" d="M45.7,16c-0.2,0-0.9,0.4-1.9,0.8c-2.1,1.1-2.4,1.3-2.7,1.6c-0.4,0.5,0,1.1,0.5,1.4c0.1,0,0.3,0,0.5,0
		c0.4-0.1,4-2,4.3-2.3C46.9,17.1,46.4,16,45.7,16z"/>
	<path class="st1" d="M49.4,26.1c-0.3-0.2-0.4-0.3-2.9-0.3h-2.7l-0.3,0.3c-0.4,0.5-0.4,0.9,0,1.3l0,0c0.3,0.3,0.3,0.3,2.9,0.3h2.7
		l0.4-0.4C49.9,26.9,49.9,26.5,49.4,26.1z"/>
	<path class="st1" d="M38,8.8C37.4,8.6,37.1,9,35.8,11c-1,1.6-1.2,2-1.1,2.3c0.1,0.4,0.3,0.6,0.6,0.7l0,0c0.5,0.2,0.6,0.1,1-0.2
		c0.5-0.5,2.5-3.7,2.5-4.1C38.9,9.3,38.5,9,38,8.8z"/>
</g>
<g>
	<g id="Capa_3">
		<rect x="21" y="12.4" class="st2" width="13.1" height="18.2"/>
	</g>
	<g id="Capa_4">
		<path class="st3" d="M30.5,34.4c-1,2.3-2,5.1-2.3,6.2s-0.6,2-0.8,2s-0.6-1.1-0.9-2.4c-0.4-1.3-1.4-4-2.2-6.1
			c-2-4.5-2.2-7.2-0.6-9.7c2.1-3.4,6.4-3,8,0.7C32.7,27.7,32.5,29.8,30.5,34.4z"/>
		<ellipse class="st4" cx="27.5" cy="27.7" rx="1.5" ry="1.7"/>
	</g>
</g>
</svg>
