<?xml version="1.0" encoding="utf-8"?>
<!-- Generator: Adobe Illustrator 18.0.0, SVG Export Plug-In . SVG Version: 6.00 Build 0)  -->
<!DOCTYPE svg PUBLIC "-//W3C//DTD SVG 1.1//EN" "http://www.w3.org/Graphics/SVG/1.1/DTD/svg11.dtd">
<svg version="1.1" id="Capa_1" xmlns="http://www.w3.org/2000/svg" xmlns:xlink="http://www.w3.org/1999/xlink" x="0px" y="0px"
	 viewBox="0 0 55 300" enable-background="new 0 0 55 300" xml:space="preserve">
<path fill="#A81E1F" d="M47.3,168.2L39.5,234l-7.6,63.5c-0.2,1.3-1,2.3-2.1,2.3h0h-0.1c-1,0-1.9-0.9-2-2.2L18.3,234l-9.7-65.8"/>
<path fill="#A81E1F" d="M55.4,149.7c0,7.6-3.1,14.4-8,19.4c-4.9,5-11.8,8-19.3,8s-14.4-3.1-19.3-8c-4.9-5-8-11.8-8-19.4
	s3.1-14.4,8-19.4c4.9-5,11.8-8,19.3-8s14.4,3.1,19.3,8C52.3,135.3,55.4,142.1,55.4,149.7z"/>
<path fill="#010202" d="M33.5,149.7c0,1.5-0.6,2.9-1.6,3.9c-1,1-2.4,1.6-3.9,1.6c-1.5,0-2.9-0.6-3.9-1.6s-1.6-2.4-1.6-3.9
	c0-1.5,0.6-2.9,1.6-3.9s2.4-1.6,3.9-1.6c1.5,0,2.9,0.6,3.9,1.6C32.9,146.8,33.5,148.2,33.5,149.7z"/>
<rect x="0.4" y="-0.2" fill="none" width="54.7" height="177.6"/>
</svg>
