<?xml version="1.0" encoding="utf-8"?>
<!-- Generator: Adobe Illustrator 18.0.0, SVG Export Plug-In . SVG Version: 6.00 Build 0)  -->
<!DOCTYPE svg PUBLIC "-//W3C//DTD SVG 1.1//EN" "http://www.w3.org/Graphics/SVG/1.1/DTD/svg11.dtd">
<svg version="1.1" id="Capa_1" xmlns="http://www.w3.org/2000/svg" xmlns:xlink="http://www.w3.org/1999/xlink" x="0px" y="0px"
	 viewBox="0 122.5 55 55" enable-background="new 0 122.5 55 55" xml:space="preserve">
<g>
	<circle fill="#CFCDD8" cx="27.5" cy="150" r="27.5"/>
	<path fill="#494A4A" d="M17.1,131.5c-0.2-0.1-0.5-0.2-0.6-0.2c-0.4,0-1,0.6-1,0.9c0,0.2,0.6,1.1,1.1,2.1c1.3,2,1.3,2.1,1.6,2.2l0,0
		c0.1,0.1,0.4,0.1,0.5,0.1c0.4,0,0.9-0.6,0.9-0.9C19.7,135.3,17.6,131.8,17.1,131.5z"/>
	<path fill="#494A4A" d="M26.6,134.2L26.6,134.2c0.5,0.4,1,0.4,1.5,0c0.3-0.3,0.3-0.4,0.4-2.6c0-1.4,0-2.4-0.1-2.6
		c-0.2-0.4-0.8-0.6-1.3-0.5c-0.6,0.3-0.7,0.5-0.7,3C26.2,133.9,26.2,134,26.6,134.2z"/>
	<path fill="#494A4A" d="M9.1,138.6c-0.6-0.2-1.3,0.4-1.3,1c0,0.1,0.1,0.4,0.3,0.6c0.2,0.3,2.3,1.4,3.9,2.2c0.9,0.5,1.9-0.7,1.3-1.4
		C13,140.6,9.5,138.7,9.1,138.6z"/>
	<path fill="#494A4A" d="M8.1,148.3c-2.3,0-2.8,0.1-3.1,0.5c-0.3,0.3-0.2,0.9,0.1,1.2l0,0c0.3,0.3,0.3,0.3,2.8,0.3
		c2.4,0,2.6,0,2.9-0.3c0.3-0.2,0.3-0.4,0.3-0.6C11.2,148.4,10.9,148.3,8.1,148.3z"/>
	<path fill="#494A4A" d="M45.7,138.5c-0.2,0-0.9,0.4-1.9,0.8c-2.1,1.1-2.4,1.3-2.7,1.6c-0.4,0.5,0,1.1,0.5,1.4c0.1,0,0.3,0,0.5,0
		c0.4-0.1,4-2,4.3-2.3C46.9,139.6,46.4,138.5,45.7,138.5z"/>
	<path fill="#494A4A" d="M49.4,148.6c-0.3-0.2-0.4-0.3-2.9-0.3h-2.7l-0.3,0.3c-0.4,0.5-0.4,0.9,0,1.3l0,0c0.3,0.3,0.3,0.3,2.9,0.3
		h2.7l0.4-0.4C49.9,149.4,49.9,149,49.4,148.6z"/>
	<path fill="#494A4A" d="M38,131.3c-0.6-0.2-0.9,0.2-2.2,2.2c-1,1.6-1.2,2-1.1,2.3c0.1,0.4,0.3,0.6,0.6,0.7l0,0
		c0.5,0.2,0.6,0.1,1-0.2c0.5-0.5,2.5-3.7,2.5-4.1C38.9,131.8,38.5,131.5,38,131.3z"/>
</g>
<g id="Capa_2" display="none">
	<g id="Capa_3" display="inline">
		<rect x="21" y="134.9" fill="#FFFFFF" fill-opacity="0" width="13.1" height="18.2"/>
	</g>
	<g id="Capa_4" display="inline">
		<path fill="#A81B1E" d="M30.5,156.9c-1,2.3-2,5.1-2.3,6.2s-0.6,2-0.8,2s-0.6-1.1-0.9-2.4c-0.4-1.3-1.4-4-2.2-6.1
			c-2-4.5-2.2-7.2-0.6-9.7c2.1-3.4,6.4-3,8,0.7C32.7,150.2,32.5,152.3,30.5,156.9z"/>
		<ellipse fill="#010202" cx="27.5" cy="150.2" rx="1.5" ry="1.7"/>
	</g>
</g>
</svg>
